<?xml version="1.0" encoding="UTF-8"?> <svg xmlns="http://www.w3.org/2000/svg" width="100" height="116" viewBox="0 0 100 116" fill="none"> <g clip-path="url(#clip0_1443_4)"> <path d="M95.5729 24.4677C96.7882 25.6696 97.8299 27.3008 98.6979 29.3613C99.566 31.4217 100 33.3104 100 35.0275V109.203C100 110.92 99.3924 112.38 98.1771 113.582C96.9618 114.784 95.4861 115.385 93.75 115.385H6.25C4.51389 115.385 3.03819 114.784 1.82292 113.582C0.607639 112.38 0 110.92 0 109.203V6.18132C0 4.46429 0.607639 3.00481 1.82292 1.80288C3.03819 0.600962 4.51389 0 6.25 0H64.5833C66.3194 0 68.2292 0.429258 70.3125 1.28777C72.3958 2.14629 74.0451 3.17651 75.2604 4.37843L95.5729 24.4677ZM66.6667 8.75687V32.967H91.1458C90.7118 31.7222 90.2344 30.8422 89.7135 30.3271L69.3359 10.1734C68.8151 9.65831 67.9253 9.18613 66.6667 8.75687ZM91.6667 107.143V41.2088H64.5833C62.8472 41.2088 61.3715 40.6078 60.1562 39.4059C58.941 38.204 58.3333 36.7445 58.3333 35.0275V8.24176H8.33333V107.143H91.6667ZM58.2031 68.9603C59.6354 70.0764 61.4583 71.2783 63.6719 72.5661C66.2326 72.2656 68.7717 72.1154 71.2891 72.1154C77.6693 72.1154 81.5104 73.1671 82.8125 75.2704C83.5069 76.2148 83.5503 77.3309 82.9427 78.6186C82.9427 78.6616 82.921 78.7045 82.8776 78.7474L82.7474 78.8762V78.9406C82.487 80.5718 80.9462 81.3874 78.125 81.3874C76.0417 81.3874 73.546 80.9581 70.638 80.0996C67.73 79.2411 64.9089 78.1035 62.1745 76.687C52.5825 77.7172 44.0755 79.4986 36.6536 82.0313C30.013 93.2778 24.7613 98.9011 20.8984 98.9011C20.2474 98.9011 19.6398 98.7509 19.0755 98.4504L17.513 97.6777C17.4696 97.6348 17.3394 97.5275 17.1224 97.3558C16.6884 96.9265 16.5582 96.1538 16.7318 95.0378C17.1224 93.3207 18.3377 91.3569 20.3776 89.1462C22.4175 86.9355 25.2821 84.8644 28.9714 82.9327C29.579 82.5464 30.0781 82.6751 30.4687 83.319C30.5556 83.4049 30.599 83.4907 30.599 83.5766C32.8559 79.9279 35.1779 75.6997 37.5651 70.892C40.5165 65.0541 42.7734 59.4308 44.3359 54.0222C43.2943 50.5022 42.6324 47.0789 42.3503 43.7521C42.0681 40.4254 42.2092 37.6889 42.7734 35.5426C43.2509 33.8255 44.1623 32.967 45.5078 32.967H46.9401C47.9384 32.967 48.6979 33.289 49.2187 33.9329C50 34.8343 50.1953 36.2938 49.8047 38.3113C49.7179 38.5689 49.6311 38.7406 49.5443 38.8264C49.5877 38.9552 49.6094 39.1269 49.6094 39.3415V41.2732C49.5226 46.5531 49.2187 50.6739 48.6979 53.6358C51.0851 60.6757 54.2535 65.7838 58.2031 68.9603ZM20.7031 95.4241C22.9601 94.3939 25.9332 91.0027 29.6224 85.2507C27.4089 86.9677 25.51 88.7706 23.9258 90.6593C22.3416 92.5481 21.2674 94.1363 20.7031 95.4241ZM46.6146 36.1865C45.9635 37.9894 45.9201 40.8225 46.4844 44.6858C46.5278 44.3853 46.6797 43.4409 46.9401 41.8527C46.9401 41.7239 47.092 40.801 47.3958 39.084C47.4392 38.9123 47.526 38.7406 47.6562 38.5689C47.6128 38.5259 47.5911 38.483 47.5911 38.4401C47.5477 38.3542 47.526 38.2898 47.526 38.2469C47.4826 37.3025 47.2005 36.5299 46.6797 35.9289C46.6797 35.9718 46.658 36.0148 46.6146 36.0577V36.1865ZM38.5417 78.7474C44.401 76.4294 50.5642 74.6909 57.0312 73.5319C56.9444 73.489 56.6623 73.2851 56.1849 72.9202C55.7075 72.5554 55.3602 72.2656 55.1432 72.051C51.8446 69.175 49.0885 65.3975 46.875 60.7186C45.7031 64.4102 43.9019 68.6384 41.4714 73.4032C40.1693 75.807 39.1927 77.5884 38.5417 78.7474ZM80.599 77.7172C79.5573 76.687 76.5191 76.1719 71.4844 76.1719C74.783 77.3738 77.474 77.9748 79.5573 77.9748C80.1649 77.9748 80.5556 77.9533 80.7292 77.9104C80.7292 77.8674 80.6858 77.8031 80.599 77.7172Z" fill="#9D9D9D"></path> </g> <defs> <clipPath id="clip0_1443_4"> <rect width="100" height="115.385" fill="white"></rect> </clipPath> </defs> </svg> 